<svg id="Layer_1" data-name="Layer 1" xmlns="http://www.w3.org/2000/svg" viewBox="0 0 1999.4 1346.19"><defs><style>.cls-1{fill:none;stroke:#fdcb88;stroke-width:6px}.cls-2{fill:#aad5c5}.cls-3{fill:#3f4338}</style></defs><title>Alternatives to Violence of the Palouse</title><path class="cls-1" d="M14.48 670.76l2.08 5.93c65 193.9 249.83 579.4 253.08 666.4h95.76c18.67-104.5 229.71-492.17 290-672.27"/><path class="cls-1" d="M153.27 666.47l2.38 10.22C178.4 783.6 340.23 1153.93 339.52 1209h6.75c1.63-73.87 159.46-406.38 175.38-532.48l.94-8.58"/><path class="cls-2" d="M472.17 459.21q65.08 182.88 65.1 217.49H110q0-37.2 64.06-217.49z"/><path class="cls-3" d="M1332.48 641a38.23 38.23 0 01-8.67 25q-8.67 10.6-22.85 10.6-9.35 0-16.11-7.54t-6.76-19.51a36.35 36.35 0 018.64-24.3q8.64-10.19 23-10.19a21.35 21.35 0 0116.11 7q6.64 7.03 6.64 18.94zm-10.13 1.73a26 26 0 00-3.78-14.27 12.2 12.2 0 00-10.93-5.93q-8.88 0-14.18 8.31a32.87 32.87 0 00-5.3 18 25.65 25.65 0 003.84 14.27 12.39 12.39 0 0011 5.93q8.76 0 14-8.31a33 33 0 005.36-18zM1382.82 589.59l-1.82 7.51a51.52 51.52 0 00-6.61-.42 7.91 7.91 0 00-7.59 4.41q-2.29 4.41-3.72 17.75 5.6 0 15.73-.6l-1.19 8.88q-11-.36-15.31-.36-1.67 21.86-3.1 40.83t-5.9 25.11a22.1 22.1 0 01-12.21 8.34l-2.38-4.65a25.41 25.41 0 007.83-10.34q2.29-5.81 3.9-22.19t3.16-37.11q-3.46 0-12.09.36l1.37-8.76q7.74.48 11.56.48 1.67-15.61 6.58-22.87t14.74-7.27a29.64 29.64 0 017.05.9zM1444.07 663.34l-1.49 7.92a22.69 22.69 0 01-12.87 4.23q-8.16 0-11.38-4t-3.22-12.84q0-7.39 3.4-31.87-3.16 0-9.71.36l1.25-8.64q5.6.36 9.77.36.36-2.44 2.56-17l8.94-1q-1.07 6.08-2.8 17.93 5.54 0 15.85-.6l-1.19 8.88q-9.83-.36-16-.36-3.1 20-3.1 28.65 0 6.79 1.73 9.29t5.84 2.5a24.37 24.37 0 0012.42-3.81zM1506.08 633.49q0 4.71-1.34 19.18t-1.34 21.56l-10.07.6q0-2.62 1.73-16.86a194.92 194.92 0 001.73-21.56q0-7-2.53-9.68t-8-2.71q-6.49 0-12.48 8.49a38.58 38.58 0 00-7 18.73q-1.31 13.34-2 23l-9.95.6q.71-5.48 5-45a390.48 390.48 0 002.5-39.38l11.32-.6a78.07 78.07 0 01-1.07 9.11q-1.55 10.31-2.86 23.35-.3 3-1 8h.48q7.74-14.48 21.33-14.48 15.55-.04 15.55 17.65zM1568.1 628.91q0 8-7.45 12.21-9.47 5.36-32.29 5.78 0 10.72 3.72 15.58t12.54 4.86q8.64 0 18.82-6.08l-1.49 8.82q-8 5.78-19.9 5.78-12.15 0-17.9-7.3t-5.75-18.5q0-16.5 9.62-25.76t22.19-9.26a21.24 21.24 0 0112.75 3.69 11.87 11.87 0 015.14 10.18zm-9.47.24a5.34 5.34 0 00-2.92-4.85 14.79 14.79 0 00-7.51-1.7 19.37 19.37 0 00-12.06 4.29q-5.57 4.29-7.24 13.17 18.29-.36 25.08-3.87 4.65-2.4 4.65-7.04zM1660.2 615.92q0 13.58-10.31 20.31t-27.7 6.73q-2.2 0-3.81-.12 0 13 1 31.39h-11.48q.89-16.92.89-40.75 0-20.49-.89-36.81h8.52q1.37 0 7.83-.18t11-.18q11.44 0 18.2 5.21t6.75 14.4zm-9.95 3.46q0-15.31-20.91-15.31a83.56 83.56 0 00-11.5.89q.42 9.71.42 30.26 2.08.12 5.12.12 26.87 0 26.87-15.96zM1716.85 674.24l-9.35.36a23.31 23.31 0 01-.71-5.54h-.6q-7.33 6.67-20 6.67a18.11 18.11 0 01-11.79-4q-4.95-4-4.94-11.47a17.32 17.32 0 017.74-14.74q7.74-5.57 28.77-5.87a26.68 26.68 0 00.18-3.28q0-7.33-3.9-9.77t-11.82-2.44a73.77 73.77 0 00-18.41 2.32l1-8.22a74.79 74.79 0 0120.55-2.56q10.6 0 16.38 4.38t5.78 14.92q0 2.8-.27 10.16t-.27 9.8a104 104 0 001.66 19.28zm-10.54-11.56q-.3-9.05-.3-16.26-11.2 0-17 1.67-9.77 3-9.77 11.38 0 8.1 11.44 8.1 9.79 0 15.63-4.89zM1743.6 674.24h-11.44q1.07-19.66 1.07-44.44a364.08 364.08 0 00-1.73-39.38l12.09-.6q-1.13 16.2-1.13 40 .01 24.46 1.14 44.42zM1814.55 644.22q0 15.25-8.76 23.8a28.54 28.54 0 01-20.61 8.55 26.65 26.65 0 01-19-7.57q-8-7.56-8-21.33 0-15.37 8.79-24a28.5 28.5 0 0120.64-8.64 26.38 26.38 0 0119 7.65q7.94 7.66 7.94 21.54zm-10.31 2.08a29.79 29.79 0 00-4.68-16.53 16 16 0 00-26.51-.39 27.79 27.79 0 00-4.62 15.91 29.74 29.74 0 004.68 16.56 16 16 0 0026.54.33 28 28 0 004.6-15.88zM1878.65 674.18l-9.23.36a23.54 23.54 0 01-.83-5.48h-.6a28.87 28.87 0 01-19.24 6.67q-10.31 0-15-5t-4.68-20q0-2.14.12-6.37t.12-5.78q0-8.76-1-20.61l11.08-.42q-.71 11.5-.71 19.66 0 18.76 2.41 24.45t10.87 5.69q9.53 0 15.73-4.77 0-33.12-.6-44.62l10.72-.42q-.48 11.2-.48 31a255.51 255.51 0 001.32 25.64zM1931.73 658.1q0 17.4-22.22 17.4a81.45 81.45 0 01-18.35-2l1.85-8.76a46.39 46.39 0 0016.8 3q13 0 13-7.39a6.69 6.69 0 00-2.89-5.69 45.3 45.3 0 00-9.56-4.74q-8.46-3.34-12.27-6.43-5.6-4.59-5.6-11.08a15.48 15.48 0 015.12-11.65q5.12-4.85 15.61-4.85 10.25 0 16.44 1.73l-1.85 8.58a40.08 40.08 0 00-14.89-2.56q-11.44 0-11.44 6.61a6.58 6.58 0 002.56 5.39q2.56 2.06 10 5 8 3.16 11.91 6.2 5.78 4.68 5.78 11.24zM1994 639.27q0 2.5-.24 6.91l-40.92.71a21.48 21.48 0 006.73 14.57q6.13 5.87 16.26 5.87a63.1 63.1 0 0017-2.2l-1 8.4q-5.84 2.32-16.86 2.32-15.49 0-23.62-8.46a28.63 28.63 0 01-8.13-20.61 35 35 0 017.42-22.37q7.36-9.41 19.88-9.41 11.5 0 17.48 6.79t6 17.48zm-9.95.12q0-16.74-14-16.74-14.3 0-16.86 17.39z"/><path class="cls-2" d="M139 346.34Q5.68 657.59 5.69 676.7V11.22h265.63Q261.12 61.06 139 346.34zM195.8 391.52Q321.32 85.2 321.33 69.17H327q0 19.13 121.39 322.35zM1253.52 11.22V676.7H646.27q0-28.41-127.1-335.27Q402.84 60.51 393 11.22z"/><path class="cls-3" d="M81.61 676.49H62.55q0-3.93-5.42-22.28H29.61q-5.6 18-5.6 22.28H6.08q0-2.32 13.91-38.13t13.91-39.43h22.51q0 3.4 12.6 38.87t12.6 38.69zm-27.52-33.66Q43.9 612.09 43.9 609.59H43q0 2.32-10.54 33.24zM106.69 676.49H90.43q.89-20.43.89-44.26a357.88 357.88 0 00-1.85-39.5l17.22-1q-.89 16.86-.89 40.45 0 24 .89 44.31zM155.66 665.35l-1 10.6a26.73 26.73 0 01-10.48 1.79q-9.65 0-14.54-5.24t-4.88-20.19q0-9 .12-20.37-3 0-8.22.36l.42-11.74q4.59.36 8.52.36.06-3.16.48-16.62l14.12-1.73q-.89 11.85-.89 18.35 5 0 15-.48l-.48 11.85q-9.06-.36-14.71-.36-.12 7.92-.12 16.62 0 10.6 2.14 14.21t7.57 3.6a27 27 0 006.95-1.01zM216.36 642.12q0 3-.36 7.92l-38.36.66a17.51 17.51 0 005.78 11.2q4.94 4.47 13 4.47a74 74 0 0019-2.68l-1.19 11.56q-8.22 3-20.37 3-15.37 0-23.56-8.64a29.13 29.13 0 01-8.19-20.79 33.29 33.29 0 017.77-22q7.77-9.32 21.59-9.32 12.63 0 18.76 6.85t6.13 17.77zm-13.94-.54q0-13.7-11.68-13.7-11.14 0-13.22 14.18zM266.4 619.9l-3.46 13.94a23.6 23.6 0 00-8.94-1.79q-8.76 0-11.56 7.86 0 23.77.36 36.58H227q1-17.93 1-29.31a117.29 117.29 0 00-3-26.87l15.19-1.67q1 6.55 1 7.68h1q5.48-8.4 14.59-8.4a28.39 28.39 0 019.62 1.98zM327.93 676.49h-15.84q1.31-15.07 1.31-30.5 0-9.35-2.77-12.69t-8.43-3.3a20.84 20.84 0 00-12.87 4.65q.3 23.23.3 41.88h-16q1.07-18.65 1.07-29.31a119.09 119.09 0 00-2.92-26.87l15.22-1.7 1 6.31h1a27.92 27.92 0 0118.76-7q9.17 0 14.68 4.32t5.51 15.94q0 1.73-.15 4.62t-.15 5.93q-.01 8 .28 27.72zM389.65 676.43l-14.06.48a12.86 12.86 0 01-1-4.53h-.77q-6.55 5.6-17.69 5.6a18.52 18.52 0 01-12.36-4.14 13.65 13.65 0 01-4.91-11q0-9.05 7.65-14.83t26.84-6.14a18.46 18.46 0 00.12-2q0-6.43-3.1-8.49T359 629.31a65.38 65.38 0 00-17.57 2.38l1.31-11q8.1-2.8 22.88-2.8 10.78 0 16.65 4.53t5.87 15.85q0 2.5-.21 9.11t-.21 8.82a88 88 0 001.93 20.23zM373.74 664q-.36-8-.36-13.88-20.31 0-20.31 10.31 0 7.09 8.94 7.09a19.06 19.06 0 0011.73-3.52zM436.41 665.35l-1 10.6a26.73 26.73 0 01-10.48 1.79q-9.65 0-14.54-5.24t-4.89-20.2q0-9 .12-20.37-3 0-8.22.36l.42-11.74q4.59.36 8.52.36.06-3.16.48-16.62l14.12-1.73q-.89 11.85-.89 18.35 5 0 15-.48l-.48 11.85q-9.06-.36-14.71-.36-.12 7.92-.12 16.62 0 10.6 2.14 14.21t7.57 3.6a27 27 0 006.96-1zM462.27 676.49h-16q.83-12.33.83-28.3a167.57 167.57 0 00-2-27.76l17.16-1.73q-.77 11.56-.77 29.49-.06 15.32.78 28.3zm2.73-74.58a10.19 10.19 0 01-2.77 7.09 9.91 9.91 0 01-7.71 3 8.31 8.31 0 01-6.52-2.62 9.12 9.12 0 01-2.35-6.31 10 10 0 012.77-7q2.77-3 7.77-3a8.25 8.25 0 016.52 2.59 9.08 9.08 0 012.29 6.25zM527.26 619.9q0 3.46-10.66 28.3t-10.66 28.3h-16.27q0-3.81-9.47-29t-9.47-27.61h17.39q0 2.68 5.87 20.7t5.87 21.18h.77q0-2.86 5.6-20t5.6-21.86zM587.18 642.12q0 3-.36 7.92l-38.36.66a17.51 17.51 0 005.78 11.2q4.94 4.47 13 4.47a74 74 0 0019-2.68L585 675.24q-8.22 3-20.37 3-15.37 0-23.56-8.64a29.13 29.13 0 01-8.19-20.79 33.29 33.29 0 017.77-22q7.77-9.32 21.59-9.32 12.63 0 18.76 6.85t6.18 17.78zm-13.94-.54q0-13.7-11.68-13.7-11.14 0-13.22 14.18zM638.42 660.23q0 17.87-26.45 17.87a61 61 0 01-16.86-2.1l2-11.74A43.55 43.55 0 00612 667q7.15 0 9.92-1.19a4.09 4.09 0 002.77-4q0-4.35-10-8.28-8.76-3.45-12.75-6.79a14.37 14.37 0 01-5.48-11.38 15.66 15.66 0 015.9-12.75q5.9-4.83 17.16-4.83 10.54 0 16.56 1.85l-2 11.79a39.72 39.72 0 00-14.54-2.62q-9.53 0-9.53 4.88a4.78 4.78 0 002 4q2 1.52 8.28 3.84 8.64 3.16 12.57 6.49a15.32 15.32 0 015.56 12.22zM710.85 665.35l-1 10.6a26.73 26.73 0 01-10.48 1.79q-9.65 0-14.54-5.24t-4.88-20.19q0-9 .12-20.37-3 0-8.22.36l.42-11.74q4.59.36 8.52.36.06-3.16.48-16.62l14.12-1.73q-.89 11.85-.89 18.35 5 0 15-.48l-.48 11.85q-9.06-.36-14.71-.36-.12 7.92-.12 16.62 0 10.6 2.14 14.21t7.57 3.6a27 27 0 006.95-1.01zM777.21 646.88q0 15-9.23 23.47a31.13 31.13 0 01-21.74 8.46 29.38 29.38 0 01-20.43-7.71q-8.52-7.72-8.52-21.71 0-15.07 9.29-23.59a31.23 31.23 0 0121.8-8.52 29.08 29.08 0 0120.34 7.77q8.49 7.78 8.49 21.83zm-15.55 1.79q0-8.64-4.05-14.5t-10.54-5.87a12.15 12.15 0 00-10.28 5.48q-4 5.48-4 13.7 0 8.64 4.05 14.5t10.54 5.87a12.15 12.15 0 0010.28-5.48q4.01-5.48 4.01-13.7zM877.11 598.93q0 4.89-13.61 38.84t-13.61 38.72h-16.38q0-4.59-12.54-38.9t-12.54-38.66h18.88q0 4.35 8 30.86t8 30.08h1q0-3.45 8-29t8-31.93zM901.3 676.49h-16q.83-12.33.83-28.3a167.57 167.57 0 00-2-27.76l17.16-1.73q-.77 11.56-.77 29.49-.06 15.32.78 28.3zm2.7-74.58a10.19 10.19 0 01-2.77 7.09 9.91 9.91 0 01-7.71 3 8.31 8.31 0 01-6.52-2.62 9.12 9.12 0 01-2.35-6.31 10 10 0 012.77-7q2.77-3 7.77-3a8.25 8.25 0 016.52 2.59 9.07 9.07 0 012.29 6.25zM972.19 646.88q0 15-9.23 23.47a31.13 31.13 0 01-21.74 8.46 29.38 29.38 0 01-20.43-7.71q-8.52-7.72-8.52-21.71 0-15.07 9.29-23.59a31.23 31.23 0 0121.8-8.52 29.07 29.07 0 0120.34 7.77q8.49 7.78 8.49 21.83zm-15.55 1.79q0-8.64-4.05-14.5T942 628.3a12.15 12.15 0 00-10.28 5.48q-4 5.48-4 13.7 0 8.64 4.05 14.5t10.54 5.87a12.15 12.15 0 0010.28-5.48q4.05-5.48 4.05-13.7zM1000.72 676.49h-16.26q.89-20.43.89-44.26a357.88 357.88 0 00-1.85-39.5l17.22-1q-.89 16.86-.89 40.45 0 24 .89 44.31zM1066.13 642.12q0 3-.36 7.92l-38.36.66a17.51 17.51 0 005.78 11.2q4.94 4.47 13 4.47a74 74 0 0019-2.68l-1.19 11.55q-8.22 3-20.37 3-15.37 0-23.56-8.64a29.14 29.14 0 01-8.19-20.79 33.29 33.29 0 017.77-22q7.77-9.32 21.59-9.32 12.63 0 18.76 6.85t6.13 17.78zm-13.94-.54q0-13.7-11.68-13.7-11.14 0-13.22 14.18zM1130.7 676.49h-15.85q1.31-15.07 1.31-30.5 0-9.35-2.77-12.69T1105 630a20.84 20.84 0 00-12.87 4.65q.3 23.23.3 41.88h-16q1.07-18.65 1.07-29.31a119.09 119.09 0 00-2.92-26.87l15.25-1.67 1 6.31h1a27.92 27.92 0 0118.76-7q9.17 0 14.68 4.32t5.51 15.94q0 1.73-.15 4.62t-.15 5.93q-.07 7.97.22 27.69zM1189 664l-1 11.38q-5.42 2.86-14.71 2.86-15.37 0-23.62-8.58a28.67 28.67 0 01-8.25-20.61 31.09 31.09 0 018.64-21.83q8.64-9.32 23.65-9.32a46.67 46.67 0 0113 1.67l-2 12.15a31.88 31.88 0 00-12.27-2.26 13.92 13.92 0 00-11.38 5.09 19.14 19.14 0 00-4.17 12.54 20 20 0 004.94 13.7q4.94 5.6 14 5.6A47 47 0 001189 664zM1250 642.12q0 3-.36 7.92l-38.36.66a17.51 17.51 0 005.78 11.2q4.94 4.47 13 4.47a74 74 0 0019-2.68l-1.19 11.56q-8.22 3-20.37 3-15.37 0-23.56-8.64a29.14 29.14 0 01-8.19-20.79 33.29 33.29 0 017.77-22q7.77-9.32 21.59-9.32 12.63 0 18.76 6.85t6.13 17.77zm-13.94-.54q0-13.7-11.68-13.7-11.14 0-13.22 14.18z"/></svg>